<mxfile host="app.diagrams.net" modified="2024-03-13T03:32:52.759Z" agent="Mozilla/5.0 (Windows NT 10.0; Win64; x64) AppleWebKit/537.36 (KHTML, like Gecko) Chrome/122.0.0.0 Safari/537.36 Edg/122.0.0.0" etag="hxu6AAtNj9vVbMJwr4ZD" version="23.1.2" type="github">
  <diagram name="Page-1" id="qpkbw7lAyscy1kqCkF4M">
    <mxGraphModel dx="2236" dy="1885" grid="1" gridSize="10" guides="1" tooltips="1" connect="1" arrows="1" fold="1" page="1" pageScale="1" pageWidth="850" pageHeight="1100" math="0" shadow="0">
      <root>
        <mxCell id="0" />
        <mxCell id="1" parent="0" />
        <mxCell id="6YPHFOy4guUbye9Mkrya-6" value="" style="edgeStyle=orthogonalEdgeStyle;rounded=0;orthogonalLoop=1;jettySize=auto;html=1;exitX=0.5;exitY=0;exitDx=0;exitDy=0;" edge="1" parent="1" source="6YPHFOy4guUbye9Mkrya-9" target="6YPHFOy4guUbye9Mkrya-1">
          <mxGeometry relative="1" as="geometry">
            <mxPoint x="420" y="410" as="sourcePoint" />
          </mxGeometry>
        </mxCell>
        <mxCell id="6YPHFOy4guUbye9Mkrya-8" value="" style="edgeStyle=orthogonalEdgeStyle;rounded=0;orthogonalLoop=1;jettySize=auto;html=1;entryX=0;entryY=0.5;entryDx=0;entryDy=0;" edge="1" parent="1" source="6YPHFOy4guUbye9Mkrya-1" target="6YPHFOy4guUbye9Mkrya-139">
          <mxGeometry relative="1" as="geometry">
            <mxPoint x="760" y="340" as="targetPoint" />
          </mxGeometry>
        </mxCell>
        <mxCell id="6YPHFOy4guUbye9Mkrya-129" value="" style="edgeStyle=orthogonalEdgeStyle;rounded=0;orthogonalLoop=1;jettySize=auto;html=1;entryX=0.5;entryY=1;entryDx=0;entryDy=0;" edge="1" parent="1" source="6YPHFOy4guUbye9Mkrya-1" target="6YPHFOy4guUbye9Mkrya-71">
          <mxGeometry relative="1" as="geometry" />
        </mxCell>
        <mxCell id="6YPHFOy4guUbye9Mkrya-1" value="Exceution" style="rounded=0;whiteSpace=wrap;html=1;" vertex="1" parent="1">
          <mxGeometry x="360" y="270" width="120" height="60" as="geometry" />
        </mxCell>
        <mxCell id="6YPHFOy4guUbye9Mkrya-69" value="" style="group" vertex="1" connectable="0" parent="1">
          <mxGeometry x="90" y="440" width="660" height="370" as="geometry" />
        </mxCell>
        <mxCell id="6YPHFOy4guUbye9Mkrya-9" value="Input" style="swimlane;whiteSpace=wrap;html=1;" vertex="1" parent="6YPHFOy4guUbye9Mkrya-69">
          <mxGeometry width="660" height="370" as="geometry" />
        </mxCell>
        <mxCell id="6YPHFOy4guUbye9Mkrya-11" value="File Sources" style="swimlane;whiteSpace=wrap;html=1;" vertex="1" parent="6YPHFOy4guUbye9Mkrya-9">
          <mxGeometry x="14" y="40" width="200" height="100" as="geometry" />
        </mxCell>
        <mxCell id="6YPHFOy4guUbye9Mkrya-17" value="Parquet" style="rounded=0;whiteSpace=wrap;html=1;" vertex="1" parent="6YPHFOy4guUbye9Mkrya-11">
          <mxGeometry x="6" y="30" width="54" height="30" as="geometry" />
        </mxCell>
        <mxCell id="6YPHFOy4guUbye9Mkrya-12" value="RDB Sources" style="swimlane;whiteSpace=wrap;html=1;" vertex="1" parent="6YPHFOy4guUbye9Mkrya-9">
          <mxGeometry x="224" y="40" width="200" height="100" as="geometry" />
        </mxCell>
        <mxCell id="6YPHFOy4guUbye9Mkrya-13" value="REST Sources" style="swimlane;whiteSpace=wrap;html=1;" vertex="1" parent="6YPHFOy4guUbye9Mkrya-9">
          <mxGeometry x="434" y="40" width="200" height="100" as="geometry" />
        </mxCell>
        <mxCell id="6YPHFOy4guUbye9Mkrya-14" value="NoSQL Sources" style="swimlane;whiteSpace=wrap;html=1;" vertex="1" parent="6YPHFOy4guUbye9Mkrya-69">
          <mxGeometry x="13" y="146" width="200" height="100" as="geometry" />
        </mxCell>
        <mxCell id="6YPHFOy4guUbye9Mkrya-15" value="OTF Sources" style="swimlane;whiteSpace=wrap;html=1;" vertex="1" parent="6YPHFOy4guUbye9Mkrya-69">
          <mxGeometry x="223" y="146" width="200" height="100" as="geometry" />
        </mxCell>
        <mxCell id="6YPHFOy4guUbye9Mkrya-16" value="Relationship Sources" style="swimlane;whiteSpace=wrap;html=1;" vertex="1" parent="6YPHFOy4guUbye9Mkrya-69">
          <mxGeometry x="433" y="146" width="200" height="100" as="geometry" />
        </mxCell>
        <mxCell id="6YPHFOy4guUbye9Mkrya-19" value="ORC" style="rounded=0;whiteSpace=wrap;html=1;" vertex="1" parent="6YPHFOy4guUbye9Mkrya-69">
          <mxGeometry x="79" y="70" width="54" height="30" as="geometry" />
        </mxCell>
        <mxCell id="6YPHFOy4guUbye9Mkrya-20" value="AVRO" style="rounded=0;whiteSpace=wrap;html=1;" vertex="1" parent="6YPHFOy4guUbye9Mkrya-69">
          <mxGeometry x="140" y="71" width="54" height="30" as="geometry" />
        </mxCell>
        <mxCell id="6YPHFOy4guUbye9Mkrya-21" value="EBCDIC" style="rounded=0;whiteSpace=wrap;html=1;" vertex="1" parent="6YPHFOy4guUbye9Mkrya-69">
          <mxGeometry x="20" y="105" width="54" height="30" as="geometry" />
        </mxCell>
        <mxCell id="6YPHFOy4guUbye9Mkrya-22" value="CSV" style="rounded=0;whiteSpace=wrap;html=1;" vertex="1" parent="6YPHFOy4guUbye9Mkrya-69">
          <mxGeometry x="79" y="105" width="54" height="30" as="geometry" />
        </mxCell>
        <mxCell id="6YPHFOy4guUbye9Mkrya-23" value="xlsx" style="rounded=0;whiteSpace=wrap;html=1;" vertex="1" parent="6YPHFOy4guUbye9Mkrya-69">
          <mxGeometry x="140" y="106" width="54" height="30" as="geometry" />
        </mxCell>
        <mxCell id="6YPHFOy4guUbye9Mkrya-24" value="Unstructured" style="swimlane;whiteSpace=wrap;html=1;" vertex="1" parent="6YPHFOy4guUbye9Mkrya-69">
          <mxGeometry x="15" y="257" width="200" height="100" as="geometry" />
        </mxCell>
        <mxCell id="6YPHFOy4guUbye9Mkrya-25" value="Semi-Structured" style="swimlane;whiteSpace=wrap;html=1;" vertex="1" parent="6YPHFOy4guUbye9Mkrya-69">
          <mxGeometry x="225" y="257" width="200" height="100" as="geometry" />
        </mxCell>
        <mxCell id="6YPHFOy4guUbye9Mkrya-26" value="Relationship Sources" style="swimlane;whiteSpace=wrap;html=1;" vertex="1" parent="6YPHFOy4guUbye9Mkrya-69">
          <mxGeometry x="435" y="257" width="200" height="100" as="geometry" />
        </mxCell>
        <mxCell id="6YPHFOy4guUbye9Mkrya-27" value="MSSQL" style="rounded=0;whiteSpace=wrap;html=1;" vertex="1" parent="6YPHFOy4guUbye9Mkrya-69">
          <mxGeometry x="235" y="69" width="54" height="30" as="geometry" />
        </mxCell>
        <mxCell id="6YPHFOy4guUbye9Mkrya-28" value="Oracle" style="rounded=0;whiteSpace=wrap;html=1;" vertex="1" parent="6YPHFOy4guUbye9Mkrya-69">
          <mxGeometry x="294" y="69" width="54" height="30" as="geometry" />
        </mxCell>
        <mxCell id="6YPHFOy4guUbye9Mkrya-29" value="Terrradata" style="rounded=0;whiteSpace=wrap;html=1;" vertex="1" parent="6YPHFOy4guUbye9Mkrya-69">
          <mxGeometry x="355" y="70" width="54" height="30" as="geometry" />
        </mxCell>
        <mxCell id="6YPHFOy4guUbye9Mkrya-30" value="DB2" style="rounded=0;whiteSpace=wrap;html=1;" vertex="1" parent="6YPHFOy4guUbye9Mkrya-69">
          <mxGeometry x="235" y="104" width="54" height="30" as="geometry" />
        </mxCell>
        <mxCell id="6YPHFOy4guUbye9Mkrya-31" value="Postgres" style="rounded=0;whiteSpace=wrap;html=1;" vertex="1" parent="6YPHFOy4guUbye9Mkrya-69">
          <mxGeometry x="294" y="104" width="54" height="30" as="geometry" />
        </mxCell>
        <mxCell id="6YPHFOy4guUbye9Mkrya-32" value="MySQL" style="rounded=0;whiteSpace=wrap;html=1;" vertex="1" parent="6YPHFOy4guUbye9Mkrya-69">
          <mxGeometry x="355" y="105" width="54" height="30" as="geometry" />
        </mxCell>
        <mxCell id="6YPHFOy4guUbye9Mkrya-33" value="Parquet" style="rounded=0;whiteSpace=wrap;html=1;" vertex="1" parent="6YPHFOy4guUbye9Mkrya-69">
          <mxGeometry x="444" y="69" width="54" height="30" as="geometry" />
        </mxCell>
        <mxCell id="6YPHFOy4guUbye9Mkrya-34" value="ORC" style="rounded=0;whiteSpace=wrap;html=1;" vertex="1" parent="6YPHFOy4guUbye9Mkrya-69">
          <mxGeometry x="503" y="69" width="54" height="30" as="geometry" />
        </mxCell>
        <mxCell id="6YPHFOy4guUbye9Mkrya-35" value="AVRO" style="rounded=0;whiteSpace=wrap;html=1;" vertex="1" parent="6YPHFOy4guUbye9Mkrya-69">
          <mxGeometry x="564" y="70" width="54" height="30" as="geometry" />
        </mxCell>
        <mxCell id="6YPHFOy4guUbye9Mkrya-36" value="EBCDIC" style="rounded=0;whiteSpace=wrap;html=1;" vertex="1" parent="6YPHFOy4guUbye9Mkrya-69">
          <mxGeometry x="444" y="104" width="54" height="30" as="geometry" />
        </mxCell>
        <mxCell id="6YPHFOy4guUbye9Mkrya-37" value="CSV" style="rounded=0;whiteSpace=wrap;html=1;" vertex="1" parent="6YPHFOy4guUbye9Mkrya-69">
          <mxGeometry x="503" y="104" width="54" height="30" as="geometry" />
        </mxCell>
        <mxCell id="6YPHFOy4guUbye9Mkrya-38" value="xlsx" style="rounded=0;whiteSpace=wrap;html=1;" vertex="1" parent="6YPHFOy4guUbye9Mkrya-69">
          <mxGeometry x="564" y="105" width="54" height="30" as="geometry" />
        </mxCell>
        <mxCell id="6YPHFOy4guUbye9Mkrya-39" value="Iceberg" style="rounded=0;whiteSpace=wrap;html=1;" vertex="1" parent="6YPHFOy4guUbye9Mkrya-69">
          <mxGeometry x="238" y="176" width="54" height="30" as="geometry" />
        </mxCell>
        <mxCell id="6YPHFOy4guUbye9Mkrya-40" value="Delta" style="rounded=0;whiteSpace=wrap;html=1;" vertex="1" parent="6YPHFOy4guUbye9Mkrya-69">
          <mxGeometry x="297" y="176" width="54" height="30" as="geometry" />
        </mxCell>
        <mxCell id="6YPHFOy4guUbye9Mkrya-41" value="Hudi" style="rounded=0;whiteSpace=wrap;html=1;" vertex="1" parent="6YPHFOy4guUbye9Mkrya-69">
          <mxGeometry x="358" y="177" width="54" height="30" as="geometry" />
        </mxCell>
        <mxCell id="6YPHFOy4guUbye9Mkrya-42" value="" style="rounded=0;whiteSpace=wrap;html=1;" vertex="1" parent="6YPHFOy4guUbye9Mkrya-69">
          <mxGeometry x="238" y="211" width="54" height="30" as="geometry" />
        </mxCell>
        <mxCell id="6YPHFOy4guUbye9Mkrya-43" value="" style="rounded=0;whiteSpace=wrap;html=1;" vertex="1" parent="6YPHFOy4guUbye9Mkrya-69">
          <mxGeometry x="297" y="211" width="54" height="30" as="geometry" />
        </mxCell>
        <mxCell id="6YPHFOy4guUbye9Mkrya-44" value="" style="rounded=0;whiteSpace=wrap;html=1;" vertex="1" parent="6YPHFOy4guUbye9Mkrya-69">
          <mxGeometry x="358" y="212" width="54" height="30" as="geometry" />
        </mxCell>
        <mxCell id="6YPHFOy4guUbye9Mkrya-45" value="Graph" style="rounded=0;whiteSpace=wrap;html=1;" vertex="1" parent="6YPHFOy4guUbye9Mkrya-69">
          <mxGeometry x="447" y="175" width="54" height="30" as="geometry" />
        </mxCell>
        <mxCell id="6YPHFOy4guUbye9Mkrya-46" value="ORC" style="rounded=0;whiteSpace=wrap;html=1;" vertex="1" parent="6YPHFOy4guUbye9Mkrya-69">
          <mxGeometry x="506" y="175" width="54" height="30" as="geometry" />
        </mxCell>
        <mxCell id="6YPHFOy4guUbye9Mkrya-47" value="AVRO" style="rounded=0;whiteSpace=wrap;html=1;" vertex="1" parent="6YPHFOy4guUbye9Mkrya-69">
          <mxGeometry x="567" y="176" width="54" height="30" as="geometry" />
        </mxCell>
        <mxCell id="6YPHFOy4guUbye9Mkrya-48" value="EBCDIC" style="rounded=0;whiteSpace=wrap;html=1;" vertex="1" parent="6YPHFOy4guUbye9Mkrya-69">
          <mxGeometry x="447" y="210" width="54" height="30" as="geometry" />
        </mxCell>
        <mxCell id="6YPHFOy4guUbye9Mkrya-49" value="CSV" style="rounded=0;whiteSpace=wrap;html=1;" vertex="1" parent="6YPHFOy4guUbye9Mkrya-69">
          <mxGeometry x="506" y="210" width="54" height="30" as="geometry" />
        </mxCell>
        <mxCell id="6YPHFOy4guUbye9Mkrya-50" value="xlsx" style="rounded=0;whiteSpace=wrap;html=1;" vertex="1" parent="6YPHFOy4guUbye9Mkrya-69">
          <mxGeometry x="567" y="211" width="54" height="30" as="geometry" />
        </mxCell>
        <mxCell id="6YPHFOy4guUbye9Mkrya-51" value="JSON" style="rounded=0;whiteSpace=wrap;html=1;" vertex="1" parent="6YPHFOy4guUbye9Mkrya-69">
          <mxGeometry x="237" y="284" width="54" height="30" as="geometry" />
        </mxCell>
        <mxCell id="6YPHFOy4guUbye9Mkrya-52" value="XML" style="rounded=0;whiteSpace=wrap;html=1;" vertex="1" parent="6YPHFOy4guUbye9Mkrya-69">
          <mxGeometry x="296" y="284" width="54" height="30" as="geometry" />
        </mxCell>
        <mxCell id="6YPHFOy4guUbye9Mkrya-53" value="XML" style="rounded=0;whiteSpace=wrap;html=1;" vertex="1" parent="6YPHFOy4guUbye9Mkrya-69">
          <mxGeometry x="357" y="285" width="54" height="30" as="geometry" />
        </mxCell>
        <mxCell id="6YPHFOy4guUbye9Mkrya-54" value="geospace" style="rounded=0;whiteSpace=wrap;html=1;" vertex="1" parent="6YPHFOy4guUbye9Mkrya-69">
          <mxGeometry x="237" y="319" width="54" height="30" as="geometry" />
        </mxCell>
        <mxCell id="6YPHFOy4guUbye9Mkrya-55" value="" style="rounded=0;whiteSpace=wrap;html=1;" vertex="1" parent="6YPHFOy4guUbye9Mkrya-69">
          <mxGeometry x="296" y="319" width="54" height="30" as="geometry" />
        </mxCell>
        <mxCell id="6YPHFOy4guUbye9Mkrya-56" value="" style="rounded=0;whiteSpace=wrap;html=1;" vertex="1" parent="6YPHFOy4guUbye9Mkrya-69">
          <mxGeometry x="357" y="320" width="54" height="30" as="geometry" />
        </mxCell>
        <mxCell id="6YPHFOy4guUbye9Mkrya-57" value="Video" style="rounded=0;whiteSpace=wrap;html=1;" vertex="1" parent="6YPHFOy4guUbye9Mkrya-69">
          <mxGeometry x="26" y="287" width="54" height="30" as="geometry" />
        </mxCell>
        <mxCell id="6YPHFOy4guUbye9Mkrya-58" value="Audio" style="rounded=0;whiteSpace=wrap;html=1;" vertex="1" parent="6YPHFOy4guUbye9Mkrya-69">
          <mxGeometry x="85" y="287" width="54" height="30" as="geometry" />
        </mxCell>
        <mxCell id="6YPHFOy4guUbye9Mkrya-59" value="pdf" style="rounded=0;whiteSpace=wrap;html=1;" vertex="1" parent="6YPHFOy4guUbye9Mkrya-69">
          <mxGeometry x="146" y="288" width="54" height="30" as="geometry" />
        </mxCell>
        <mxCell id="6YPHFOy4guUbye9Mkrya-60" value="Images" style="rounded=0;whiteSpace=wrap;html=1;" vertex="1" parent="6YPHFOy4guUbye9Mkrya-69">
          <mxGeometry x="26" y="322" width="54" height="30" as="geometry" />
        </mxCell>
        <mxCell id="6YPHFOy4guUbye9Mkrya-61" value="" style="rounded=0;whiteSpace=wrap;html=1;" vertex="1" parent="6YPHFOy4guUbye9Mkrya-69">
          <mxGeometry x="85" y="322" width="54" height="30" as="geometry" />
        </mxCell>
        <mxCell id="6YPHFOy4guUbye9Mkrya-62" value="" style="rounded=0;whiteSpace=wrap;html=1;" vertex="1" parent="6YPHFOy4guUbye9Mkrya-69">
          <mxGeometry x="146" y="323" width="54" height="30" as="geometry" />
        </mxCell>
        <mxCell id="6YPHFOy4guUbye9Mkrya-63" value="MongoDB" style="rounded=0;whiteSpace=wrap;html=1;" vertex="1" parent="6YPHFOy4guUbye9Mkrya-69">
          <mxGeometry x="21" y="176" width="54" height="30" as="geometry" />
        </mxCell>
        <mxCell id="6YPHFOy4guUbye9Mkrya-64" value="Cassandra" style="rounded=0;whiteSpace=wrap;html=1;" vertex="1" parent="6YPHFOy4guUbye9Mkrya-69">
          <mxGeometry x="80" y="176" width="54" height="30" as="geometry" />
        </mxCell>
        <mxCell id="6YPHFOy4guUbye9Mkrya-65" value="AVRO" style="rounded=0;whiteSpace=wrap;html=1;" vertex="1" parent="6YPHFOy4guUbye9Mkrya-69">
          <mxGeometry x="141" y="177" width="54" height="30" as="geometry" />
        </mxCell>
        <mxCell id="6YPHFOy4guUbye9Mkrya-66" value="EBCDIC" style="rounded=0;whiteSpace=wrap;html=1;" vertex="1" parent="6YPHFOy4guUbye9Mkrya-69">
          <mxGeometry x="21" y="211" width="54" height="30" as="geometry" />
        </mxCell>
        <mxCell id="6YPHFOy4guUbye9Mkrya-67" value="CSV" style="rounded=0;whiteSpace=wrap;html=1;" vertex="1" parent="6YPHFOy4guUbye9Mkrya-69">
          <mxGeometry x="80" y="211" width="54" height="30" as="geometry" />
        </mxCell>
        <mxCell id="6YPHFOy4guUbye9Mkrya-68" value="xlsx" style="rounded=0;whiteSpace=wrap;html=1;" vertex="1" parent="6YPHFOy4guUbye9Mkrya-69">
          <mxGeometry x="141" y="212" width="54" height="30" as="geometry" />
        </mxCell>
        <mxCell id="6YPHFOy4guUbye9Mkrya-70" value="" style="group" vertex="1" connectable="0" parent="1">
          <mxGeometry x="90" y="-186" width="660" height="370" as="geometry" />
        </mxCell>
        <mxCell id="6YPHFOy4guUbye9Mkrya-71" value="Output" style="swimlane;whiteSpace=wrap;html=1;" vertex="1" parent="6YPHFOy4guUbye9Mkrya-70">
          <mxGeometry width="660" height="370" as="geometry" />
        </mxCell>
        <mxCell id="6YPHFOy4guUbye9Mkrya-72" value="File Sources" style="swimlane;whiteSpace=wrap;html=1;" vertex="1" parent="6YPHFOy4guUbye9Mkrya-71">
          <mxGeometry x="14" y="40" width="200" height="100" as="geometry" />
        </mxCell>
        <mxCell id="6YPHFOy4guUbye9Mkrya-73" value="Parquet" style="rounded=0;whiteSpace=wrap;html=1;" vertex="1" parent="6YPHFOy4guUbye9Mkrya-72">
          <mxGeometry x="6" y="30" width="54" height="30" as="geometry" />
        </mxCell>
        <mxCell id="6YPHFOy4guUbye9Mkrya-74" value="RDB Sources" style="swimlane;whiteSpace=wrap;html=1;" vertex="1" parent="6YPHFOy4guUbye9Mkrya-71">
          <mxGeometry x="224" y="40" width="200" height="100" as="geometry" />
        </mxCell>
        <mxCell id="6YPHFOy4guUbye9Mkrya-75" value="REST Sources" style="swimlane;whiteSpace=wrap;html=1;" vertex="1" parent="6YPHFOy4guUbye9Mkrya-71">
          <mxGeometry x="434" y="40" width="200" height="100" as="geometry" />
        </mxCell>
        <mxCell id="6YPHFOy4guUbye9Mkrya-76" value="NoSQL Sources" style="swimlane;whiteSpace=wrap;html=1;" vertex="1" parent="6YPHFOy4guUbye9Mkrya-70">
          <mxGeometry x="13" y="146" width="200" height="100" as="geometry" />
        </mxCell>
        <mxCell id="6YPHFOy4guUbye9Mkrya-77" value="OTF Sources" style="swimlane;whiteSpace=wrap;html=1;" vertex="1" parent="6YPHFOy4guUbye9Mkrya-70">
          <mxGeometry x="223" y="146" width="200" height="100" as="geometry" />
        </mxCell>
        <mxCell id="6YPHFOy4guUbye9Mkrya-78" value="Relationship Sources" style="swimlane;whiteSpace=wrap;html=1;" vertex="1" parent="6YPHFOy4guUbye9Mkrya-70">
          <mxGeometry x="433" y="146" width="200" height="100" as="geometry" />
        </mxCell>
        <mxCell id="6YPHFOy4guUbye9Mkrya-79" value="ORC" style="rounded=0;whiteSpace=wrap;html=1;" vertex="1" parent="6YPHFOy4guUbye9Mkrya-70">
          <mxGeometry x="79" y="70" width="54" height="30" as="geometry" />
        </mxCell>
        <mxCell id="6YPHFOy4guUbye9Mkrya-80" value="AVRO" style="rounded=0;whiteSpace=wrap;html=1;" vertex="1" parent="6YPHFOy4guUbye9Mkrya-70">
          <mxGeometry x="140" y="71" width="54" height="30" as="geometry" />
        </mxCell>
        <mxCell id="6YPHFOy4guUbye9Mkrya-81" value="EBCDIC" style="rounded=0;whiteSpace=wrap;html=1;" vertex="1" parent="6YPHFOy4guUbye9Mkrya-70">
          <mxGeometry x="20" y="105" width="54" height="30" as="geometry" />
        </mxCell>
        <mxCell id="6YPHFOy4guUbye9Mkrya-82" value="CSV" style="rounded=0;whiteSpace=wrap;html=1;" vertex="1" parent="6YPHFOy4guUbye9Mkrya-70">
          <mxGeometry x="79" y="105" width="54" height="30" as="geometry" />
        </mxCell>
        <mxCell id="6YPHFOy4guUbye9Mkrya-83" value="xlsx" style="rounded=0;whiteSpace=wrap;html=1;" vertex="1" parent="6YPHFOy4guUbye9Mkrya-70">
          <mxGeometry x="140" y="106" width="54" height="30" as="geometry" />
        </mxCell>
        <mxCell id="6YPHFOy4guUbye9Mkrya-84" value="Unstructured" style="swimlane;whiteSpace=wrap;html=1;" vertex="1" parent="6YPHFOy4guUbye9Mkrya-70">
          <mxGeometry x="15" y="257" width="200" height="100" as="geometry" />
        </mxCell>
        <mxCell id="6YPHFOy4guUbye9Mkrya-85" value="Semi-Structured" style="swimlane;whiteSpace=wrap;html=1;" vertex="1" parent="6YPHFOy4guUbye9Mkrya-70">
          <mxGeometry x="225" y="257" width="200" height="100" as="geometry" />
        </mxCell>
        <mxCell id="6YPHFOy4guUbye9Mkrya-86" value="Relationship Sources" style="swimlane;whiteSpace=wrap;html=1;" vertex="1" parent="6YPHFOy4guUbye9Mkrya-70">
          <mxGeometry x="435" y="257" width="200" height="100" as="geometry" />
        </mxCell>
        <mxCell id="6YPHFOy4guUbye9Mkrya-87" value="MSSQL" style="rounded=0;whiteSpace=wrap;html=1;" vertex="1" parent="6YPHFOy4guUbye9Mkrya-70">
          <mxGeometry x="235" y="69" width="54" height="30" as="geometry" />
        </mxCell>
        <mxCell id="6YPHFOy4guUbye9Mkrya-88" value="Oracle" style="rounded=0;whiteSpace=wrap;html=1;" vertex="1" parent="6YPHFOy4guUbye9Mkrya-70">
          <mxGeometry x="294" y="69" width="54" height="30" as="geometry" />
        </mxCell>
        <mxCell id="6YPHFOy4guUbye9Mkrya-89" value="Terrradata" style="rounded=0;whiteSpace=wrap;html=1;" vertex="1" parent="6YPHFOy4guUbye9Mkrya-70">
          <mxGeometry x="355" y="70" width="54" height="30" as="geometry" />
        </mxCell>
        <mxCell id="6YPHFOy4guUbye9Mkrya-90" value="DB2" style="rounded=0;whiteSpace=wrap;html=1;" vertex="1" parent="6YPHFOy4guUbye9Mkrya-70">
          <mxGeometry x="235" y="104" width="54" height="30" as="geometry" />
        </mxCell>
        <mxCell id="6YPHFOy4guUbye9Mkrya-91" value="Postgres" style="rounded=0;whiteSpace=wrap;html=1;" vertex="1" parent="6YPHFOy4guUbye9Mkrya-70">
          <mxGeometry x="294" y="104" width="54" height="30" as="geometry" />
        </mxCell>
        <mxCell id="6YPHFOy4guUbye9Mkrya-92" value="MySQL" style="rounded=0;whiteSpace=wrap;html=1;" vertex="1" parent="6YPHFOy4guUbye9Mkrya-70">
          <mxGeometry x="355" y="105" width="54" height="30" as="geometry" />
        </mxCell>
        <mxCell id="6YPHFOy4guUbye9Mkrya-93" value="Parquet" style="rounded=0;whiteSpace=wrap;html=1;" vertex="1" parent="6YPHFOy4guUbye9Mkrya-70">
          <mxGeometry x="444" y="69" width="54" height="30" as="geometry" />
        </mxCell>
        <mxCell id="6YPHFOy4guUbye9Mkrya-94" value="ORC" style="rounded=0;whiteSpace=wrap;html=1;" vertex="1" parent="6YPHFOy4guUbye9Mkrya-70">
          <mxGeometry x="503" y="69" width="54" height="30" as="geometry" />
        </mxCell>
        <mxCell id="6YPHFOy4guUbye9Mkrya-95" value="AVRO" style="rounded=0;whiteSpace=wrap;html=1;" vertex="1" parent="6YPHFOy4guUbye9Mkrya-70">
          <mxGeometry x="564" y="70" width="54" height="30" as="geometry" />
        </mxCell>
        <mxCell id="6YPHFOy4guUbye9Mkrya-96" value="EBCDIC" style="rounded=0;whiteSpace=wrap;html=1;" vertex="1" parent="6YPHFOy4guUbye9Mkrya-70">
          <mxGeometry x="444" y="104" width="54" height="30" as="geometry" />
        </mxCell>
        <mxCell id="6YPHFOy4guUbye9Mkrya-97" value="CSV" style="rounded=0;whiteSpace=wrap;html=1;" vertex="1" parent="6YPHFOy4guUbye9Mkrya-70">
          <mxGeometry x="503" y="104" width="54" height="30" as="geometry" />
        </mxCell>
        <mxCell id="6YPHFOy4guUbye9Mkrya-98" value="xlsx" style="rounded=0;whiteSpace=wrap;html=1;" vertex="1" parent="6YPHFOy4guUbye9Mkrya-70">
          <mxGeometry x="564" y="105" width="54" height="30" as="geometry" />
        </mxCell>
        <mxCell id="6YPHFOy4guUbye9Mkrya-99" value="Iceberg" style="rounded=0;whiteSpace=wrap;html=1;" vertex="1" parent="6YPHFOy4guUbye9Mkrya-70">
          <mxGeometry x="238" y="176" width="54" height="30" as="geometry" />
        </mxCell>
        <mxCell id="6YPHFOy4guUbye9Mkrya-100" value="Delta" style="rounded=0;whiteSpace=wrap;html=1;" vertex="1" parent="6YPHFOy4guUbye9Mkrya-70">
          <mxGeometry x="297" y="176" width="54" height="30" as="geometry" />
        </mxCell>
        <mxCell id="6YPHFOy4guUbye9Mkrya-101" value="Hudi" style="rounded=0;whiteSpace=wrap;html=1;" vertex="1" parent="6YPHFOy4guUbye9Mkrya-70">
          <mxGeometry x="358" y="177" width="54" height="30" as="geometry" />
        </mxCell>
        <mxCell id="6YPHFOy4guUbye9Mkrya-102" value="" style="rounded=0;whiteSpace=wrap;html=1;" vertex="1" parent="6YPHFOy4guUbye9Mkrya-70">
          <mxGeometry x="238" y="211" width="54" height="30" as="geometry" />
        </mxCell>
        <mxCell id="6YPHFOy4guUbye9Mkrya-103" value="" style="rounded=0;whiteSpace=wrap;html=1;" vertex="1" parent="6YPHFOy4guUbye9Mkrya-70">
          <mxGeometry x="297" y="211" width="54" height="30" as="geometry" />
        </mxCell>
        <mxCell id="6YPHFOy4guUbye9Mkrya-104" value="" style="rounded=0;whiteSpace=wrap;html=1;" vertex="1" parent="6YPHFOy4guUbye9Mkrya-70">
          <mxGeometry x="358" y="212" width="54" height="30" as="geometry" />
        </mxCell>
        <mxCell id="6YPHFOy4guUbye9Mkrya-105" value="Graph" style="rounded=0;whiteSpace=wrap;html=1;" vertex="1" parent="6YPHFOy4guUbye9Mkrya-70">
          <mxGeometry x="447" y="175" width="54" height="30" as="geometry" />
        </mxCell>
        <mxCell id="6YPHFOy4guUbye9Mkrya-106" value="ORC" style="rounded=0;whiteSpace=wrap;html=1;" vertex="1" parent="6YPHFOy4guUbye9Mkrya-70">
          <mxGeometry x="506" y="175" width="54" height="30" as="geometry" />
        </mxCell>
        <mxCell id="6YPHFOy4guUbye9Mkrya-107" value="AVRO" style="rounded=0;whiteSpace=wrap;html=1;" vertex="1" parent="6YPHFOy4guUbye9Mkrya-70">
          <mxGeometry x="567" y="176" width="54" height="30" as="geometry" />
        </mxCell>
        <mxCell id="6YPHFOy4guUbye9Mkrya-108" value="EBCDIC" style="rounded=0;whiteSpace=wrap;html=1;" vertex="1" parent="6YPHFOy4guUbye9Mkrya-70">
          <mxGeometry x="447" y="210" width="54" height="30" as="geometry" />
        </mxCell>
        <mxCell id="6YPHFOy4guUbye9Mkrya-109" value="CSV" style="rounded=0;whiteSpace=wrap;html=1;" vertex="1" parent="6YPHFOy4guUbye9Mkrya-70">
          <mxGeometry x="506" y="210" width="54" height="30" as="geometry" />
        </mxCell>
        <mxCell id="6YPHFOy4guUbye9Mkrya-110" value="xlsx" style="rounded=0;whiteSpace=wrap;html=1;" vertex="1" parent="6YPHFOy4guUbye9Mkrya-70">
          <mxGeometry x="567" y="211" width="54" height="30" as="geometry" />
        </mxCell>
        <mxCell id="6YPHFOy4guUbye9Mkrya-111" value="JSON" style="rounded=0;whiteSpace=wrap;html=1;" vertex="1" parent="6YPHFOy4guUbye9Mkrya-70">
          <mxGeometry x="237" y="284" width="54" height="30" as="geometry" />
        </mxCell>
        <mxCell id="6YPHFOy4guUbye9Mkrya-112" value="XML" style="rounded=0;whiteSpace=wrap;html=1;" vertex="1" parent="6YPHFOy4guUbye9Mkrya-70">
          <mxGeometry x="296" y="284" width="54" height="30" as="geometry" />
        </mxCell>
        <mxCell id="6YPHFOy4guUbye9Mkrya-113" value="XML" style="rounded=0;whiteSpace=wrap;html=1;" vertex="1" parent="6YPHFOy4guUbye9Mkrya-70">
          <mxGeometry x="357" y="285" width="54" height="30" as="geometry" />
        </mxCell>
        <mxCell id="6YPHFOy4guUbye9Mkrya-114" value="geospace" style="rounded=0;whiteSpace=wrap;html=1;" vertex="1" parent="6YPHFOy4guUbye9Mkrya-70">
          <mxGeometry x="237" y="319" width="54" height="30" as="geometry" />
        </mxCell>
        <mxCell id="6YPHFOy4guUbye9Mkrya-115" value="" style="rounded=0;whiteSpace=wrap;html=1;" vertex="1" parent="6YPHFOy4guUbye9Mkrya-70">
          <mxGeometry x="296" y="319" width="54" height="30" as="geometry" />
        </mxCell>
        <mxCell id="6YPHFOy4guUbye9Mkrya-116" value="" style="rounded=0;whiteSpace=wrap;html=1;" vertex="1" parent="6YPHFOy4guUbye9Mkrya-70">
          <mxGeometry x="357" y="320" width="54" height="30" as="geometry" />
        </mxCell>
        <mxCell id="6YPHFOy4guUbye9Mkrya-117" value="Video" style="rounded=0;whiteSpace=wrap;html=1;" vertex="1" parent="6YPHFOy4guUbye9Mkrya-70">
          <mxGeometry x="26" y="287" width="54" height="30" as="geometry" />
        </mxCell>
        <mxCell id="6YPHFOy4guUbye9Mkrya-118" value="Audio" style="rounded=0;whiteSpace=wrap;html=1;" vertex="1" parent="6YPHFOy4guUbye9Mkrya-70">
          <mxGeometry x="85" y="287" width="54" height="30" as="geometry" />
        </mxCell>
        <mxCell id="6YPHFOy4guUbye9Mkrya-119" value="pdf" style="rounded=0;whiteSpace=wrap;html=1;" vertex="1" parent="6YPHFOy4guUbye9Mkrya-70">
          <mxGeometry x="146" y="288" width="54" height="30" as="geometry" />
        </mxCell>
        <mxCell id="6YPHFOy4guUbye9Mkrya-120" value="Images" style="rounded=0;whiteSpace=wrap;html=1;" vertex="1" parent="6YPHFOy4guUbye9Mkrya-70">
          <mxGeometry x="26" y="322" width="54" height="30" as="geometry" />
        </mxCell>
        <mxCell id="6YPHFOy4guUbye9Mkrya-121" value="" style="rounded=0;whiteSpace=wrap;html=1;" vertex="1" parent="6YPHFOy4guUbye9Mkrya-70">
          <mxGeometry x="85" y="322" width="54" height="30" as="geometry" />
        </mxCell>
        <mxCell id="6YPHFOy4guUbye9Mkrya-122" value="" style="rounded=0;whiteSpace=wrap;html=1;" vertex="1" parent="6YPHFOy4guUbye9Mkrya-70">
          <mxGeometry x="146" y="323" width="54" height="30" as="geometry" />
        </mxCell>
        <mxCell id="6YPHFOy4guUbye9Mkrya-123" value="MongoDB" style="rounded=0;whiteSpace=wrap;html=1;" vertex="1" parent="6YPHFOy4guUbye9Mkrya-70">
          <mxGeometry x="21" y="176" width="54" height="30" as="geometry" />
        </mxCell>
        <mxCell id="6YPHFOy4guUbye9Mkrya-124" value="Cassandra" style="rounded=0;whiteSpace=wrap;html=1;" vertex="1" parent="6YPHFOy4guUbye9Mkrya-70">
          <mxGeometry x="80" y="176" width="54" height="30" as="geometry" />
        </mxCell>
        <mxCell id="6YPHFOy4guUbye9Mkrya-125" value="AVRO" style="rounded=0;whiteSpace=wrap;html=1;" vertex="1" parent="6YPHFOy4guUbye9Mkrya-70">
          <mxGeometry x="141" y="177" width="54" height="30" as="geometry" />
        </mxCell>
        <mxCell id="6YPHFOy4guUbye9Mkrya-126" value="EBCDIC" style="rounded=0;whiteSpace=wrap;html=1;" vertex="1" parent="6YPHFOy4guUbye9Mkrya-70">
          <mxGeometry x="21" y="211" width="54" height="30" as="geometry" />
        </mxCell>
        <mxCell id="6YPHFOy4guUbye9Mkrya-127" value="CSV" style="rounded=0;whiteSpace=wrap;html=1;" vertex="1" parent="6YPHFOy4guUbye9Mkrya-70">
          <mxGeometry x="80" y="211" width="54" height="30" as="geometry" />
        </mxCell>
        <mxCell id="6YPHFOy4guUbye9Mkrya-128" value="xlsx" style="rounded=0;whiteSpace=wrap;html=1;" vertex="1" parent="6YPHFOy4guUbye9Mkrya-70">
          <mxGeometry x="141" y="212" width="54" height="30" as="geometry" />
        </mxCell>
        <mxCell id="6YPHFOy4guUbye9Mkrya-137" value="" style="endArrow=classic;html=1;rounded=0;exitX=1;exitY=0.5;exitDx=0;exitDy=0;" edge="1" parent="1" source="6YPHFOy4guUbye9Mkrya-130" target="6YPHFOy4guUbye9Mkrya-1">
          <mxGeometry width="50" height="50" relative="1" as="geometry">
            <mxPoint x="540" y="460" as="sourcePoint" />
            <mxPoint x="590" y="410" as="targetPoint" />
          </mxGeometry>
        </mxCell>
        <mxCell id="6YPHFOy4guUbye9Mkrya-138" value="" style="group" vertex="1" connectable="0" parent="1">
          <mxGeometry x="-128" y="202" width="200" height="200" as="geometry" />
        </mxCell>
        <mxCell id="6YPHFOy4guUbye9Mkrya-130" value="Orchestration" style="swimlane;whiteSpace=wrap;html=1;" vertex="1" parent="6YPHFOy4guUbye9Mkrya-138">
          <mxGeometry width="200" height="200" as="geometry" />
        </mxCell>
        <mxCell id="6YPHFOy4guUbye9Mkrya-131" value="Airflow" style="rounded=0;whiteSpace=wrap;html=1;" vertex="1" parent="6YPHFOy4guUbye9Mkrya-130">
          <mxGeometry x="10" y="30" width="80" height="40" as="geometry" />
        </mxCell>
        <mxCell id="6YPHFOy4guUbye9Mkrya-132" value="Autosys" style="rounded=0;whiteSpace=wrap;html=1;" vertex="1" parent="6YPHFOy4guUbye9Mkrya-138">
          <mxGeometry x="104" y="31" width="80" height="40" as="geometry" />
        </mxCell>
        <mxCell id="6YPHFOy4guUbye9Mkrya-133" value="Kedro" style="rounded=0;whiteSpace=wrap;html=1;" vertex="1" parent="6YPHFOy4guUbye9Mkrya-138">
          <mxGeometry x="107" y="87" width="80" height="40" as="geometry" />
        </mxCell>
        <mxCell id="6YPHFOy4guUbye9Mkrya-134" value="Cron" style="rounded=0;whiteSpace=wrap;html=1;" vertex="1" parent="6YPHFOy4guUbye9Mkrya-138">
          <mxGeometry x="10" y="86" width="80" height="40" as="geometry" />
        </mxCell>
        <mxCell id="6YPHFOy4guUbye9Mkrya-135" value="Prefect" style="rounded=0;whiteSpace=wrap;html=1;" vertex="1" parent="6YPHFOy4guUbye9Mkrya-138">
          <mxGeometry x="106" y="135" width="80" height="40" as="geometry" />
        </mxCell>
        <mxCell id="6YPHFOy4guUbye9Mkrya-136" value="dagster" style="rounded=0;whiteSpace=wrap;html=1;" vertex="1" parent="6YPHFOy4guUbye9Mkrya-138">
          <mxGeometry x="9" y="134" width="80" height="40" as="geometry" />
        </mxCell>
        <mxCell id="6YPHFOy4guUbye9Mkrya-139" value="Infrastructure" style="swimlane;whiteSpace=wrap;html=1;" vertex="1" parent="1">
          <mxGeometry x="800" y="160" width="370" height="280" as="geometry" />
        </mxCell>
      </root>
    </mxGraphModel>
  </diagram>
</mxfile>
